# xmcd
#
# Track frame offsets:
# 150
# 17991
# 41324
# 55478
# 72312
# 94406
# 111536
# 128895
# 146217
# 163684
# 178949
# 186500
#
# Disc length: 2709 seconds
#
#
# Revision: 0
# Processed by: cddbd v1.5.2PL0 Copyright (c) Steve Scherf et al.
# Submitted via: FreeRIP 2.942 
#
DISCID=bf0a930c
DTITLE=Crash Test Dummies - God Shuffled His Feet
DYEAR=1993
DGENRE=Pop
TTITLE0=God Shuffled His Feet
TTITLE1=Afternoons and Coffeespoons
TTITLE2=Mmm Mmm Mmm Mmm
TTITLE3=In The Days of the Caveman
TTITLE4=Swimming In Your Ocean
TTITLE5=Here I Stand Before Me
TTITLE6=I Think I'll Disappear Now
TTITLE7=How Does A Duck Know?
TTITLE8=When I Go Out With Artists
TTITLE9=The Psychic
TTITLE10=Two Knights And Maidens
TTITLE11=Untitled
EXTD=
EXTT0=
EXTT1=
EXTT2=
EXTT3=
EXTT4=
EXTT5=
EXTT6=
EXTT7=
EXTT8=
EXTT9=
EXTT10=
EXTT11=
PLAYORDER=
